<svg xmlns="http://www.w3.org/2000/svg" width="128" height="128" viewBox="0 0 128 128" role="img"><title>PX NPP</title><rect width="128" height="128" rx="26" fill="#17161A"/><g fill="#F2EDE3" fill-rule="evenodd" transform="translate(29.5593451568895 61) scale(0.023192360163710776 -0.023192360163710776)"><path transform="translate(0 0)" d="M0 0L0 1466L700 1466Q1010 1466 1140 1362Q1270 1258 1270 1040Q1270 822 1140 719Q1010 616 700 616L453 616L453 0ZM453 946L690 946Q900 946 900 1040Q900 1136 690 1136L453 1136Z"/><path transform="translate(1470 0)" d="M0 1466L560 1466L750 1169.7L940 1466L1500 1466L1030 733L1500 0L940 0L750 296.3L560 0L0 0L470 733Z"/></g><g fill="#C8952F" fill-rule="evenodd" transform="translate(12.907230559345159 101) scale(0.023192360163710776 -0.023192360163710776)"><path transform="translate(0 0)" d="M0 0V1466H453L1013 590V1466H1466V0H1013L453 876V0Z"/><path transform="translate(1666 0)" d="M0 0L0 1466L700 1466Q1010 1466 1140 1362Q1270 1258 1270 1040Q1270 822 1140 719Q1010 616 700 616L453 616L453 0ZM453 946L690 946Q900 946 900 1040Q900 1136 690 1136L453 1136Z"/><path transform="translate(3136 0)" d="M0 0L0 1466L700 1466Q1010 1466 1140 1362Q1270 1258 1270 1040Q1270 822 1140 719Q1010 616 700 616L453 616L453 0ZM453 946L690 946Q900 946 900 1040Q900 1136 690 1136L453 1136Z"/></g></svg>
